<?xml version="1.0" encoding="utf-8"?>
<!-- Generator: Adobe Illustrator 26.3.1, SVG Export Plug-In . SVG Version: 6.00 Build 0)  -->
<svg version="1.1" id="Calque_1" xmlns="http://www.w3.org/2000/svg" xmlns:xlink="http://www.w3.org/1999/xlink" x="0px" y="0px"
	 viewBox="0 0 63.1 72.8" style="enable-background:new 0 0 63.1 72.8;" xml:space="preserve">
<style type="text/css">
	.st0{fill-rule:evenodd;clip-rule:evenodd;fill:#EC9222;}
</style>
<path class="st0" d="M49.9,25.7c6.8,0,12.4-5.6,12.4-12.4c0-6.9-5.6-12.4-12.4-12.4c-6.9,0-12.4,5.6-12.4,12.4c0,1,0.1,2,0.3,2.9
	l-17,12.1c-2.1-1.6-4.7-2.6-7.6-2.6c-6.9,0-12.4,5.6-12.4,12.4s5.6,12.4,12.4,12.4c3,0,5.8-1.1,8-2.9l16.4,10.3
	c-0.1,0.5-0.1,1-0.1,1.5c0,6.9,5.6,12.4,12.4,12.4c6.8,0,12.4-5.6,12.4-12.4c0-6.8-5.6-12.4-12.4-12.4c-3.5,0-6.7,1.5-9,3.8
	l-15.6-9.8c0.2-0.9,0.3-1.9,0.3-2.9c0-1.2-0.2-2.3-0.5-3.4l16.8-11.9C44.1,24.7,46.8,25.7,49.9,25.7L49.9,25.7z"/>
</svg>
