<?xml version="1.0" encoding="utf-8"?>
<!-- Generator: Adobe Illustrator 26.3.1, SVG Export Plug-In . SVG Version: 6.00 Build 0)  -->
<svg version="1.1" id="Calque_1" xmlns="http://www.w3.org/2000/svg" xmlns:xlink="http://www.w3.org/1999/xlink" x="0px" y="0px"
	 viewBox="0 0 90 76" style="enable-background:new 0 0 90 76;" xml:space="preserve">
<style type="text/css">
	.st0{fill-rule:evenodd;clip-rule:evenodd;fill:#FFA32D;}
</style>
<path class="st0" d="M7,74.9h76c3.1,0,5.6-2.5,5.6-5.6V36.1H1.4v33.1C1.4,72.3,3.9,74.9,7,74.9L7,74.9z M88.6,33.4v-9.2
	c0-3.1-2.5-5.6-5.6-5.6H43c-1,0-1.9-0.5-2.4-1.3L31.9,3.8c-1-1.6-2.8-2.6-4.7-2.6H7c-3.1,0-5.6,2.5-5.6,5.6v26.6H88.6z M37.3,62.2
	c0,0.8-0.6,1.4-1.4,1.4l0,0H10.8c-0.8,0-1.4-0.6-1.4-1.4s0.6-1.4,1.4-1.4l0,0H36C36.7,60.9,37.3,61.5,37.3,62.2z"/>
</svg>
